<svg xmlns="http://www.w3.org/2000/svg" version="1.1" xmlns:xlink="http://www.w3.org/1999/xlink" xmlns:svgjs="http://svgjs.dev/svgjs" width="1000" height="623" viewBox="0 0 1000 623"><g transform="matrix(1,0,0,1,-0.6060606060606233,0.2522267206477409)"><svg viewBox="0 0 396 247" data-background-color="#0c1d36" preserveAspectRatio="xMidYMid meet" height="623" width="1000" xmlns="http://www.w3.org/2000/svg" xmlns:xlink="http://www.w3.org/1999/xlink"><defs></defs><g id="tight-bounds" transform="matrix(1,0,0,1,0.2400000000000091,-0.09999999999999432)"><svg viewBox="0 0 395.52 247.2" height="247.2" width="395.52"><g><svg></svg></g><g><svg viewBox="0 0 395.52 247.2" height="247.2" width="395.52"><g transform="matrix(1,0,0,1,75.54432,96.79076344220287)"><svg viewBox="0 0 244.43135999999998 53.61847311559424" height="53.61847311559424" width="244.43135999999998"><g><svg viewBox="0 0 244.43135999999998 53.61847311559424" height="53.61847311559424" width="244.43135999999998"><g><svg viewBox="0 0 244.43135999999998 53.61847311559424" height="53.61847311559424" width="244.43135999999998"><g><svg viewBox="0 0 244.43135999999998 53.61847311559424" height="53.61847311559424" width="244.43135999999998"><g><svg viewBox="0 0 244.43135999999998 53.61847311559424" height="53.61847311559424" width="244.43135999999998"><g><svg viewBox="0 0 244.43135999999998 31.10069738010022" height="31.10069738010022" width="244.43135999999998"><g transform="matrix(1,0,0,1,0,0)"><svg width="244.43135999999998" viewBox="5.699999809265137 -35.29999923706055 279.3799743652344 35.54999923706055" height="31.10069738010022" data-palette-color="#f9cc0b"><path d="M21.1-35.3Q27.4-35.3 30.98-31.55 34.55-27.8 34.55-20.85L34.55-20.85 34.55 0 30.85 0 30.85-20.75Q30.85-26.3 28.1-29.15 25.35-32 20.4-32L20.4-32Q15.2-32 12.3-28.98 9.4-25.95 9.4-19.9L9.4-19.9 9.4 0 5.7 0 5.7-35 9.25-35 9.25-29.1Q12.6-35.3 21.1-35.3L21.1-35.3ZM59.25-32Q54.1-32 51.57-29.68 49.05-27.35 49.05-22.95L49.05-22.95 49.05-18.05 65.75-18.05 65.75-14.85 49.05-14.85 49.05 0 45.35 0 45.35-23Q45.35-28.75 48.95-32.02 52.55-35.3 59.1-35.3L59.1-35.3Q65.45-35.3 69.3-32.55L69.3-32.55 67.95-29.5Q64.55-32 59.25-32L59.25-32ZM99.2-31.45L97.85-28.55Q92.7-31.55 86.45-32L86.45-32 86.45 0 82.75 0 82.75-32Q76.6-31.6 71.3-28.55L71.3-28.55 69.95-31.45Q76.45-35.3 84.55-35.3L84.55-35.3Q92.8-35.3 99.2-31.45L99.2-31.45ZM117.89-35Q124.59-35 128.39-31.8 132.19-28.6 132.19-23L132.19-23Q132.19-17.4 128.39-14.23 124.59-11.05 117.89-11.05L117.89-11.05 108.49-11.05 108.49 0 104.79 0 104.79-35 117.89-35ZM117.79-14.3Q122.99-14.3 125.74-16.57 128.49-18.85 128.49-23L128.49-23Q128.49-27.25 125.74-29.53 122.99-31.8 117.79-31.8L117.79-31.8 108.49-31.8 108.49-14.3 117.79-14.3ZM159.74-26.3L163.29-26.3 163.29 0 159.89 0 159.89-5.2Q158.29-2.55 155.67-1.15 153.04 0.25 149.74 0.25L149.74 0.25Q146.04 0.25 143.04-1.45 140.04-3.15 138.34-6.2 136.64-9.25 136.64-13.15L136.64-13.15Q136.64-17.05 138.34-20.1 140.04-23.15 143.04-24.83 146.04-26.5 149.74-26.5L149.74-26.5Q152.94-26.5 155.52-25.18 158.09-23.85 159.74-21.3L159.74-21.3 159.74-26.3ZM150.04-2.9Q152.79-2.9 155.02-4.17 157.24-5.45 158.52-7.8 159.79-10.15 159.79-13.15L159.79-13.15Q159.79-16.15 158.52-18.5 157.24-20.85 155.02-22.13 152.79-23.4 150.04-23.4L150.04-23.4Q147.24-23.4 145.02-22.13 142.79-20.85 141.52-18.5 140.24-16.15 140.24-13.15L140.24-13.15Q140.24-10.15 141.52-7.8 142.79-5.45 145.02-4.17 147.24-2.9 150.04-2.9L150.04-2.9ZM184.89-4.15L186.14-1.6Q185.14-0.7 183.69-0.23 182.24 0.25 180.64 0.25L180.64 0.25Q176.94 0.25 174.94-1.75 172.94-3.75 172.94-7.4L172.94-7.4 172.94-32.05 176.49-32.05 176.49-26.3 184.44-26.3 184.44-23.3 176.49-23.3 176.49-7.6Q176.49-5.25 177.64-4.03 178.79-2.8 180.99-2.8L180.99-2.8Q183.39-2.8 184.89-4.15L184.89-4.15ZM204.29-4.15L205.54-1.6Q204.54-0.7 203.09-0.23 201.64 0.25 200.04 0.25L200.04 0.25Q196.34 0.25 194.34-1.75 192.34-3.75 192.34-7.4L192.34-7.4 192.34-32.05 195.89-32.05 195.89-26.3 203.84-26.3 203.84-23.3 195.89-23.3 195.89-7.6Q195.89-5.25 197.04-4.03 198.19-2.8 200.39-2.8L200.39-2.8Q202.79-2.8 204.29-4.15L204.29-4.15ZM222.28-2.9Q224.73-2.9 226.81-3.78 228.88-4.65 230.33-6.35L230.33-6.35 232.33-4.05Q230.58-1.95 227.98-0.85 225.38 0.25 222.23 0.25L222.23 0.25Q218.18 0.25 215.03-1.48 211.88-3.2 210.13-6.25 208.38-9.3 208.38-13.15L208.38-13.15Q208.38-17 210.06-20.05 211.73-23.1 214.68-24.8 217.63-26.5 221.38-26.5L221.38-26.5Q224.88-26.5 227.71-24.9 230.53-23.3 232.21-20.45 233.88-17.6 233.98-13.95L233.98-13.95 212.38-9.75Q213.38-6.55 216.01-4.73 218.63-2.9 222.28-2.9L222.28-2.9ZM221.38-23.45Q218.63-23.45 216.46-22.18 214.28-20.9 213.06-18.63 211.83-16.35 211.83-13.4L211.83-13.4Q211.83-12.65 211.88-12.3L211.88-12.3 230.43-15.9Q229.83-19.2 227.38-21.33 224.93-23.45 221.38-23.45L221.38-23.45ZM244.63-21.15Q245.88-23.8 248.36-25.15 250.83-26.5 254.48-26.5L254.48-26.5 254.48-23.05 253.63-23.1Q249.48-23.1 247.13-20.55 244.78-18 244.78-13.4L244.78-13.4 244.78 0 241.23 0 241.23-26.3 244.63-26.3 244.63-21.15ZM274.28-26.5Q279.23-26.5 282.15-23.63 285.08-20.75 285.08-15.25L285.08-15.25 285.08 0 281.53 0 281.53-14.9Q281.53-19 279.48-21.15 277.43-23.3 273.63-23.3L273.63-23.3Q269.38-23.3 266.9-20.78 264.43-18.25 264.43-13.8L264.43-13.8 264.43 0 260.88 0 260.88-26.3 264.28-26.3 264.28-21.45Q265.73-23.85 268.3-25.18 270.88-26.5 274.28-26.5L274.28-26.5Z" opacity="1" transform="matrix(1,0,0,1,0,0)" fill="#f9cc0b" class="undefined-text-0" data-fill-palette-color="primary" id="text-0"></path></svg></g></svg></g><g transform="matrix(1,0,0,1,0,38.44282561480476)"><svg viewBox="0 0 244.43135999999998 15.17564750078949" height="15.17564750078949" width="244.43135999999998"><g transform="matrix(1,0,0,1,0,0)"><svg width="244.43135999999998" viewBox="1.5099999904632568 -36.18000030517578 773.0299682617188 48" height="15.17564750078949" data-palette-color="#f9cc0b"><path d="M21.78-13.82Q22.41-14.5 23.05-15.43 23.68-16.36 23.68-17.29L23.68-17.29Q23.68-18.16 23.05-18.73 22.41-19.29 21.53-19.58 20.65-19.87 19.7-20 18.75-20.12 18.12-20.12L18.12-20.12Q16.11-20.12 14.36-19.41 12.6-18.7 11.28-17.46 9.96-16.21 9.2-14.5 8.45-12.79 8.45-10.74L8.45-10.74Q8.45-8.84 9.25-7.71 10.06-6.59 11.3-6.03 12.55-5.47 14.11-5.32 15.67-5.18 17.24-5.18L17.24-5.18Q19.63-5.18 22.22-5.57 24.8-5.96 27.1-6.64L27.1-6.64 28.42-2.29Q26.07-1.42 23.19-1 20.31-0.59 17.77-0.59L17.77-0.59Q16.26-0.59 14.48-0.76 12.7-0.93 10.89-1.34 9.08-1.76 7.4-2.44 5.71-3.13 4.39-4.2 3.08-5.27 2.29-6.76 1.51-8.25 1.51-10.21L1.51-10.21Q1.51-13.77 3.25-16.48 4.98-19.19 7.69-21.02 10.4-22.85 13.7-23.78 16.99-24.71 20.17-24.71L20.17-24.71Q21.92-24.71 23.68-24.44 25.44-24.17 26.86-23.44 28.27-22.71 29.15-21.39 30.03-20.07 30.03-17.97L30.03-17.97Q30.03-16.89 29.83-15.87 29.64-14.84 29.35-13.82L29.35-13.82 21.78-13.82ZM41.26-18.55L41.26-18.55Q42.43-19.53 43.97-20.41 45.51-21.29 47.19-21.95 48.87-22.61 50.61-23 52.34-23.39 53.85-23.39L53.85-23.39 53.85-19.19Q52.29-19.19 50.39-18.51 48.48-17.82 46.65-16.75 44.82-15.67 43.36-14.31 41.89-12.94 41.21-11.52L41.21-11.52Q41.21-11.18 41.23-10.25 41.26-9.33 41.28-8.11 41.31-6.88 41.35-5.54 41.4-4.2 41.5-3.03 41.6-1.86 41.7-1.03 41.79-0.2 41.94 0L41.94 0 34.03 0Q34.23-0.1 34.37-1.05 34.52-2 34.59-3.37 34.67-4.74 34.74-6.32 34.81-7.91 34.84-9.38 34.86-10.84 34.86-11.91 34.86-12.99 34.86-13.33L34.86-13.33Q34.86-13.77 34.86-15.19 34.86-16.6 34.81-18.16 34.76-19.73 34.67-21.07 34.57-22.41 34.37-22.71L34.37-22.71 41.6-22.71Q41.5-22.41 41.45-21.85 41.4-21.29 41.35-20.65 41.31-20.02 41.28-19.43 41.26-18.85 41.26-18.55ZM69.67 0.73L69.67 0.73Q67.28 0.73 64.59 0.1 61.91-0.54 59.64-1.88 57.37-3.22 55.88-5.27 54.39-7.32 54.39-10.16L54.39-10.16Q54.39-13.62 55.76-16.36 57.12-19.09 59.42-20.97 61.71-22.85 64.74-23.85 67.77-24.85 71.09-24.85L71.09-24.85Q73.73-24.85 75.78-24 77.83-23.14 79.19-21.61 80.56-20.07 81.27-17.97 81.98-15.87 81.98-13.33L81.98-13.33Q81.98-10.89 81.25-8.64L81.25-8.64 60.88-8.64Q61.37-7.18 62.42-6.25 63.47-5.32 64.81-4.81 66.16-4.3 67.65-4.1 69.14-3.91 70.45-3.91L70.45-3.91Q71.28-3.91 72.68-4.03 74.07-4.15 75.53-4.42 77-4.69 78.29-5.08 79.58-5.47 80.22-6.05L80.22-6.05 82.61-1.86Q79.39-0.63 76.26 0.05 73.14 0.73 69.67 0.73ZM69.67-20.26L69.67-20.26Q68.21-20.26 66.77-19.68 65.33-19.09 64.16-18.14 62.98-17.19 62.1-15.89 61.23-14.6 60.83-13.23L60.83-13.23 74.8-13.23Q74.95-14.7 74.82-15.99 74.7-17.29 74.16-18.24 73.63-19.19 72.55-19.73 71.48-20.26 69.67-20.26ZM113.57 0.59L104.53 0.59Q105.36 0.34 105.56-0.51 105.75-1.37 105.8-2.05L105.8-2.05Q103.61-1.37 101.36-1.03 99.11-0.68 96.87-0.68L96.87-0.68Q95.4-0.68 93.38-0.93 91.35-1.17 89.52-1.86 87.69-2.54 86.39-3.76 85.1-4.98 85.1-6.98L85.1-6.98Q85.1-8.69 86.35-9.91 87.59-11.13 89.54-11.94 91.5-12.74 93.94-13.18 96.38-13.62 98.72-13.87 101.07-14.11 103.12-14.16 105.17-14.21 106.34-14.26L106.34-14.26Q106.34-14.94 106.36-15.58 106.39-16.21 106.39-16.89L106.39-16.89Q106.39-18.12 105.95-19.02 105.51-19.92 104.75-20.51 104-21.09 102.97-21.36 101.95-21.63 100.82-21.63L100.82-21.63Q99.75-21.63 98.5-21.34 97.26-21.04 96.14-20.46 95.01-19.87 94.18-18.97 93.35-18.07 93.16-16.89L93.16-16.89 87-17.72Q87.88-19.97 89.45-21.53 91.01-23.1 92.99-24.07 94.96-25.05 97.21-25.51 99.46-25.98 101.7-25.98L101.7-25.98Q103.85-25.98 105.88-25.44 107.9-24.9 109.49-23.8 111.08-22.71 112.03-21 112.98-19.29 112.98-16.94L112.98-16.94Q112.98-14.45 112.91-11.99 112.83-9.52 112.83-7.03L112.83-7.03Q112.83-6.59 112.83-5.44 112.83-4.3 112.91-3.05 112.98-1.81 113.13-0.76 113.27 0.29 113.57 0.59L113.57 0.59ZM91.74-6.98L91.74-6.98Q91.74-6.25 92.52-5.86 93.3-5.47 94.35-5.25 95.4-5.03 96.43-4.98 97.45-4.93 97.89-4.93L97.89-4.93Q99.94-4.93 102.04-5.22 104.14-5.52 106.1-6.15L106.1-6.15Q106.14-7.03 106.17-7.91 106.19-8.79 106.19-9.62L106.19-9.62 104.92-9.67Q104.48-9.67 103.34-9.64 102.19-9.62 100.72-9.55 99.26-9.47 97.67-9.3 96.09-9.13 94.77-8.84 93.45-8.54 92.6-8.08 91.74-7.62 91.74-6.98ZM129.29-17.63Q129.19-15.14 129.09-12.62 128.99-10.11 128.99-7.62L128.99-7.62Q128.99-6.79 129.34-6.2 129.68-5.62 130.24-5.25 130.8-4.88 131.51-4.74 132.22-4.59 132.95-4.59L132.95-4.59Q133.88-4.59 134.78-4.74 135.68-4.88 136.56-5.13L136.56-5.13 135.78 0.1Q132.95 0.1 130.46-0.07 127.97-0.24 126.11-1.12 124.26-2 123.18-3.93 122.11-5.86 122.11-9.38L122.11-9.38Q122.11-11.43 122.23-13.5 122.35-15.58 122.55-17.63L122.55-17.63 115.32-17.58 115.66-22.36Q117.42-22.22 119.23-22.19 121.03-22.17 122.84-22.17L122.84-22.17Q122.94-23.58 122.99-24.93 123.04-26.27 123.04-27.69L123.04-27.69Q123.04-27.98 123.04-28.86 123.04-29.74 122.94-30.69 122.84-31.64 122.65-32.42 122.45-33.2 122.11-33.35L122.11-33.35 131.09-33.2Q130.9-33.2 130.8-32.91 130.7-32.62 130.61-32.47L130.61-32.47Q130.31-31.54 130.14-30.22 129.97-28.91 129.85-27.47 129.73-26.03 129.65-24.68 129.58-23.34 129.53-22.31L129.53-22.31Q131.19-22.41 132.9-22.49 134.61-22.56 136.27-22.95L136.27-22.95 136.27-17.68 129.29-17.63ZM154.87 0.73L154.87 0.73Q152.48 0.73 149.79 0.1 147.11-0.54 144.84-1.88 142.57-3.22 141.08-5.27 139.59-7.32 139.59-10.16L139.59-10.16Q139.59-13.62 140.95-16.36 142.32-19.09 144.62-20.97 146.91-22.85 149.94-23.85 152.97-24.85 156.29-24.85L156.29-24.85Q158.92-24.85 160.97-24 163.02-23.14 164.39-21.61 165.76-20.07 166.47-17.97 167.18-15.87 167.18-13.33L167.18-13.33Q167.18-10.89 166.44-8.64L166.44-8.64 146.08-8.64Q146.57-7.18 147.62-6.25 148.67-5.32 150.01-4.81 151.35-4.3 152.84-4.1 154.33-3.91 155.65-3.91L155.65-3.91Q156.48-3.91 157.87-4.03 159.26-4.15 160.73-4.42 162.19-4.69 163.49-5.08 164.78-5.47 165.42-6.05L165.42-6.05 167.81-1.86Q164.59-0.63 161.46 0.05 158.34 0.73 154.87 0.73ZM154.87-20.26L154.87-20.26Q153.41-20.26 151.97-19.68 150.52-19.09 149.35-18.14 148.18-17.19 147.3-15.89 146.42-14.6 146.03-13.23L146.03-13.23 160-13.23Q160.14-14.7 160.02-15.99 159.9-17.29 159.36-18.24 158.83-19.19 157.75-19.73 156.68-20.26 154.87-20.26ZM217.07-24.51Q216.88-24.22 216.78-23.14 216.68-22.07 216.63-20.83 216.58-19.58 216.58-18.43 216.58-17.29 216.58-16.85L216.58-16.85Q216.58-12.84 216.63-8.86 216.68-4.88 216.68-0.93L216.68-0.93Q216.68 2.1 215.34 4.37 214 6.64 211.85 8.13 209.7 9.62 207.01 10.35 204.33 11.08 201.64 11.08L201.64 11.08Q198.66 11.08 195.71 11.04 192.76 10.99 189.83 10.94L189.83 10.94 190.31 5.27Q191.05 5.57 192.39 5.83 193.73 6.1 195.2 6.27 196.66 6.45 198.03 6.54 199.4 6.64 200.28 6.64L200.28 6.64Q202.57 6.64 204.38 6.25 206.18 5.86 207.45 4.91 208.72 3.96 209.41 2.29 210.09 0.63 210.09-1.86L210.09-1.86Q210.09-2.29 210.07-2.76 210.04-3.22 209.99-3.66L209.99-3.66Q208.04-2.25 205.7-1.56 203.35-0.88 200.96-0.88L200.96-0.88Q197.44-0.88 195.12-1.98 192.8-3.08 191.44-5 190.07-6.93 189.51-9.59 188.95-12.26 188.95-15.38L188.95-15.38Q188.95-16.89 189.05-18.41 189.14-19.92 189.14-21.44L189.14-21.44Q189.14-22.12 189.07-22.92 189-23.73 188.56-24.27L188.56-24.27 197.44-24.22Q197.05-23.58 196.74-22.36 196.42-21.14 196.22-19.78 196.03-18.41 195.93-17.11 195.83-15.82 195.83-15.04L195.83-15.04Q195.83-13.09 196.1-11.43 196.37-9.77 197.15-8.52 197.93-7.28 199.27-6.57 200.62-5.86 202.77-5.86L202.77-5.86Q203.64-5.86 204.77-6.01 205.89-6.15 206.92-6.57 207.94-6.98 208.72-7.67 209.5-8.35 209.65-9.42L209.65-9.42Q209.8-10.3 209.8-11.21 209.8-12.11 209.8-12.94L209.8-12.94Q209.8-13.67 209.72-15.41 209.65-17.14 209.5-18.97 209.36-20.8 209.09-22.39 208.82-23.97 208.43-24.41L208.43-24.41 217.07-24.51ZM237.58-23.54L237.58-23.54Q240.26-23.54 243.24-22.78 246.22-22.02 248.66-20.48 251.1-18.95 252.71-16.6 254.33-14.26 254.33-11.08L254.33-11.08Q254.33-8.98 253.54-7.3 252.76-5.62 251.47-4.32 250.18-3.03 248.47-2.08 246.76-1.12 244.88-0.51 243 0.1 241.04 0.39 239.09 0.68 237.38 0.68L237.38 0.68Q234.6 0.68 231.67 0.05 228.74-0.59 226.32-2 223.91-3.42 222.37-5.69 220.83-7.96 220.83-11.28L220.83-11.28Q220.83-14.55 222.42-16.87 224-19.19 226.44-20.68 228.89-22.17 231.84-22.85 234.79-23.54 237.58-23.54ZM228.15-11.33L228.15-11.33Q228.15-9.42 229.01-8.11 229.86-6.79 231.21-5.96 232.55-5.13 234.21-4.76 235.87-4.39 237.48-4.39L237.48-4.39Q238.99-4.39 240.65-4.79 242.31-5.18 243.73-6.01 245.15-6.84 246.07-8.13 247-9.42 247-11.23L247-11.23Q247-13.04 246.12-14.38 245.24-15.72 243.88-16.63 242.51-17.53 240.82-17.97 239.14-18.41 237.58-18.41L237.58-18.41Q235.97-18.41 234.31-17.99 232.65-17.58 231.28-16.72 229.91-15.87 229.03-14.53 228.15-13.18 228.15-11.33ZM287.33-23.78Q287.14-23.44 286.96-22.31 286.79-21.19 286.65-19.65 286.5-18.12 286.4-16.31 286.31-14.5 286.23-12.87 286.16-11.23 286.13-9.94 286.11-8.64 286.11-8.06L286.11-8.06Q286.11-7.57 286.11-6.32 286.11-5.08 286.23-3.76 286.35-2.44 286.57-1.37 286.79-0.29 287.23-0.1L287.23-0.1 278.64-0.15 278.83-2.49Q276.98-1.17 274.78-0.32 272.58 0.54 270.29 0.54L270.29 0.54Q268 0.54 265.87-0.02 263.75-0.59 262.14-1.76 260.52-2.93 259.55-4.76 258.57-6.59 258.57-9.18L258.57-9.18Q258.57-12.45 258.89-15.67 259.21-18.9 259.21-22.17L259.21-22.17Q259.21-22.71 259.18-23.24 259.16-23.78 259.06-24.32L259.06-24.32 267.31-24.32Q266.82-23.49 266.58-21.68 266.33-19.87 266.21-17.82 266.09-15.77 266.07-13.84 266.04-11.91 266.04-10.84L266.04-10.84Q266.04-8.98 266.33-7.76 266.63-6.54 267.34-5.81 268.04-5.08 269.26-4.79 270.49-4.49 272.34-4.49L272.34-4.49Q273.37-4.49 274.32-4.86 275.27-5.22 276.15-5.81 277.03-6.4 277.76-7.13 278.49-7.86 279.08-8.59L279.08-8.59Q279.18-10.74 279.23-12.84 279.27-14.94 279.27-17.09L279.27-17.09Q279.27-17.53 279.27-18.53 279.27-19.53 279.23-20.61 279.18-21.68 279.05-22.58 278.93-23.49 278.74-23.78L278.74-23.78 287.33-23.78ZM299.05-18.55L299.05-18.55Q300.22-19.53 301.76-20.41 303.3-21.29 304.98-21.95 306.66-22.61 308.4-23 310.13-23.39 311.64-23.39L311.64-23.39 311.64-19.19Q310.08-19.19 308.18-18.51 306.27-17.82 304.44-16.75 302.61-15.67 301.15-14.31 299.68-12.94 299-11.52L299-11.52Q299-11.18 299.02-10.25 299.05-9.33 299.07-8.11 299.1-6.88 299.14-5.54 299.19-4.2 299.29-3.03 299.39-1.86 299.49-1.03 299.58-0.2 299.73 0L299.73 0 291.82 0Q292.02-0.1 292.16-1.05 292.31-2 292.38-3.37 292.46-4.74 292.53-6.32 292.6-7.91 292.63-9.38 292.65-10.84 292.65-11.91 292.65-12.99 292.65-13.33L292.65-13.33Q292.65-13.77 292.65-15.19 292.65-16.6 292.6-18.16 292.55-19.73 292.46-21.07 292.36-22.41 292.16-22.71L292.16-22.71 299.39-22.71Q299.29-22.41 299.24-21.85 299.19-21.29 299.14-20.65 299.1-20.02 299.07-19.43 299.05-18.85 299.05-18.55ZM346.65-23.54L346.65-23.54Q349.34-23.54 352.31-22.78 355.29-22.02 357.73-20.48 360.18-18.95 361.79-16.6 363.4-14.26 363.4-11.08L363.4-11.08Q363.4-8.98 362.62-7.3 361.84-5.62 360.54-4.32 359.25-3.03 357.54-2.08 355.83-1.12 353.95-0.51 352.07 0.1 350.12 0.39 348.16 0.68 346.45 0.68L346.45 0.68Q343.67 0.68 340.74 0.05 337.81-0.59 335.39-2 332.98-3.42 331.44-5.69 329.9-7.96 329.9-11.28L329.9-11.28Q329.9-14.55 331.49-16.87 333.08-19.19 335.52-20.68 337.96-22.17 340.91-22.85 343.87-23.54 346.65-23.54ZM337.23-11.33L337.23-11.33Q337.23-9.42 338.08-8.11 338.93-6.79 340.28-5.96 341.62-5.13 343.28-4.76 344.94-4.39 346.55-4.39L346.55-4.39Q348.07-4.39 349.73-4.79 351.39-5.18 352.8-6.01 354.22-6.84 355.15-8.13 356.07-9.42 356.07-11.23L356.07-11.23Q356.07-13.04 355.19-14.38 354.32-15.72 352.95-16.63 351.58-17.53 349.9-17.97 348.21-18.41 346.65-18.41L346.65-18.41Q345.04-18.41 343.38-17.99 341.72-17.58 340.35-16.72 338.98-15.87 338.1-14.53 337.23-13.18 337.23-11.33ZM405.24-23.83Q404.95-23.58 404.34-22.51 403.73-21.44 402.9-19.82 402.07-18.21 401.11-16.19 400.16-14.16 399.19-12.06 398.21-9.96 397.31-7.91 396.4-5.86 395.72-4.17 395.04-2.49 394.62-1.29 394.21-0.1 394.21 0.24L394.21 0.24 394.21 0.39 387.96 0.39Q388.05 0.24 387.86-0.46 387.66-1.17 387.3-2.12 386.93-3.08 386.47-4.17 386-5.27 385.56-6.27 385.12-7.28 384.76-8.03 384.39-8.79 384.24-9.08L384.24-9.08Q384-8.54 383.37-7.15 382.73-5.76 382.07-4.25 381.41-2.73 380.9-1.44 380.39-0.15 380.39 0.29L380.39 0.29 380.39 0.39 374.14 0.39Q374.19 0.34 374.19 0.29L374.19 0.29Q374.19-0.15 373.43-1.98 372.67-3.81 371.5-6.35 370.33-8.89 368.89-11.77 367.45-14.65 366.15-17.19 364.86-19.73 363.83-21.56 362.81-23.39 362.42-23.83L362.42-23.83 370.62-23.83Q372.18-19.87 373.62-16.02 375.07-12.16 377.02-8.4L377.02-8.4Q377.99-10.4 378.95-12.35 379.9-14.31 380.88-16.31L380.88-16.31Q380.58-16.94 380.07-18.02 379.56-19.09 378.97-20.24 378.39-21.39 377.82-22.36 377.26-23.34 376.87-23.83L376.87-23.83 385.07-23.83Q385.56-22.61 385.93-21.39 386.3-20.17 386.69-18.95L386.69-18.95Q387.57-16.26 388.57-13.65 389.57-11.04 390.84-8.5L390.84-8.5Q392.11-11.33 393.35-14.14 394.6-16.94 395.87-19.82L395.87-19.82Q396.31-20.8 396.74-21.78 397.18-22.75 397.43-23.83L397.43-23.83 405.24-23.83ZM434.49-15.04L434.49-15.04Q434.49-11.67 434.17-8.35 433.85-5.03 433.85-1.66L433.85-1.66Q433.85-0.54 434 0.54L434 0.54 425.45 0.54Q425.94-0.24 426.19-2.08 426.43-3.91 426.55-5.98 426.67-8.06 426.7-9.99 426.72-11.91 426.72-12.94L426.72-12.94Q426.72-15.92 425.26-17.6 423.79-19.29 420.72-19.29L420.72-19.29Q419.69-19.29 418.74-18.92 417.79-18.55 416.93-17.97 416.08-17.38 415.32-16.65 414.56-15.92 413.98-15.19L413.98-15.19Q413.83-10.94 413.83-6.69L413.83-6.69Q413.83-6.35 413.83-5.35 413.83-4.35 413.88-3.22 413.93-2.1 414.03-1.15 414.13-0.2 414.37 0L414.37 0 405.73 0Q405.92-0.29 406.12-1.44 406.31-2.59 406.46-4.17 406.61-5.76 406.7-7.57 406.8-9.38 406.87-11.04 406.95-12.7 406.97-13.96 407-15.23 407-15.72L407-15.72Q407-16.11 406.97-17.36 406.95-18.6 406.85-19.95 406.75-21.29 406.53-22.41 406.31-23.54 405.87-23.68L405.87-23.68 414.42-23.63 414.27-21.29Q416.08-22.61 418.3-23.46 420.52-24.32 422.82-24.32L422.82-24.32Q425.06-24.32 427.19-23.85 429.31-23.39 430.92-22.29 432.53-21.19 433.51-19.43 434.49-17.68 434.49-15.04ZM494.34-35.99Q493.71-35.99 493.32-34.86 492.93-33.74 492.66-32.03 492.39-30.32 492.27-28.25 492.15-26.17 492.12-24.27 492.1-22.36 492.1-20.87 492.1-19.38 492.1-18.85L492.1-18.85Q492.1-15.97 492.05-13.11 492-10.25 492-7.32L492-7.32Q492-6.93 492-5.83 492-4.74 492.05-3.52 492.1-2.29 492.27-1.27 492.44-0.24 492.73 0L492.73 0 484.14 0Q483.5-0.73 482.94-1.54 482.38-2.34 481.8-3.13L481.8-3.13 478.09-8.11Q474.96-12.3 471.79-16.46 468.61-20.61 465.24-24.66L465.24-24.66Q465.05-23.05 465-21.41 464.95-19.78 464.9-18.16L464.9-18.16Q464.8-15.67 464.75-13.18 464.71-10.69 464.71-8.2L464.71-8.2Q464.71-7.81 464.71-6.57 464.71-5.32 464.75-3.96 464.8-2.59 464.93-1.42 465.05-0.24 465.29 0L465.29 0 456.75 0Q457.04-0.29 457.24-1.88 457.43-3.47 457.53-5.71 457.63-7.96 457.67-10.57 457.72-13.18 457.72-15.58 457.72-17.97 457.7-19.82 457.67-21.68 457.67-22.41L457.67-22.41Q457.67-22.85 457.7-23.97 457.72-25.1 457.7-26.56 457.67-28.03 457.6-29.64 457.53-31.25 457.33-32.62 457.14-33.98 456.8-34.91 456.45-35.84 455.97-35.99L455.97-35.99 467.78-35.99Q467.64-35.94 467.64-35.6L467.64-35.6Q467.64-34.77 468.73-32.71 469.83-30.66 471.57-28 473.3-25.34 475.38-22.36 477.45-19.38 479.38-16.7 481.31-14.01 482.85-11.94 484.38-9.86 485.07-8.98L485.07-8.98Q485.17-12.35 485.14-15.7 485.12-19.04 485.12-22.41L485.12-22.41Q485.12-22.85 485.14-23.97 485.17-25.1 485.14-26.56 485.12-28.03 485.04-29.64 484.97-31.25 484.77-32.62 484.58-33.98 484.24-34.91 483.9-35.84 483.41-35.99L483.41-35.99 494.34-35.99ZM532.28-30.47Q532.04-30.57 531.09-30.62 530.13-30.66 528.77-30.71 527.4-30.76 525.84-30.79 524.27-30.81 522.88-30.81 521.49-30.81 520.42-30.81 519.34-30.81 518.95-30.81L518.95-30.81Q512.7-30.81 506.4-30.66L506.4-30.66Q506.16-28.22 506.11-25.81 506.06-23.39 506.06-20.9L506.06-20.9 528.23-21.14 528.18-15.92Q527.89-16.02 526.4-16.09 524.91-16.16 523.2-16.19 521.49-16.21 519.93-16.21 518.37-16.21 517.93-16.21L517.93-16.21Q512.02-16.21 506.01-16.06L506.01-16.06Q506.01-13.87 505.99-11.69 505.96-9.52 505.96-7.32L505.96-7.32Q505.96-6.93 505.96-5.81 505.96-4.69 506.01-3.49 506.06-2.29 506.23-1.27 506.4-0.24 506.7 0L506.7 0 498.15 0Q498.44-0.29 498.64-1.88 498.83-3.47 498.96-5.71 499.08-7.96 499.1-10.6 499.13-13.23 499.13-15.63 499.13-18.02 499.1-19.85 499.08-21.68 499.08-22.41L499.08-22.41Q499.08-22.85 499.08-23.93 499.08-25 499.05-26.32 499.03-27.64 498.98-29.13 498.93-30.62 498.81-31.88 498.69-33.15 498.49-34.11 498.3-35.06 498-35.4L498-35.4Q497.86-35.55 497.69-35.69 497.52-35.84 497.37-35.99L497.37-35.99 532.82-35.89 532.28-30.47ZM565.73-30.96Q565.53-31.05 564.43-31.1 563.33-31.15 561.8-31.18 560.26-31.2 558.48-31.23 556.69-31.25 555.11-31.25 553.52-31.25 552.32-31.25 551.13-31.25 550.74-31.25L550.74-31.25Q550.35-27.59 550.32-23.93 550.3-20.26 550.3-16.6L550.3-16.6Q550.3-14.26 550.25-11.96 550.2-9.67 550.2-7.32L550.2-7.32Q550.2-6.93 550.2-5.83 550.2-4.74 550.25-3.52 550.3-2.29 550.47-1.27 550.64-0.24 550.93 0L550.93 0 542.39 0Q542.73-0.29 542.9-1.88 543.07-3.47 543.19-5.71 543.31-7.96 543.34-10.6 543.36-13.23 543.36-15.63 543.36-18.02 543.34-19.85 543.31-21.68 543.31-22.41L543.31-22.41Q543.31-24.61 543.29-26.81 543.27-29 543.12-31.2L543.12-31.2Q539.95-31.2 536.82-31.18 533.7-31.15 530.52-31.1L530.52-31.1Q530.03-31.1 529.28-31.08 528.52-31.05 527.69-31.05 526.86-31.05 526.1-31.01 525.35-30.96 524.91-30.86L524.91-30.86 524.76-35.94 565.78-36.18 565.73-30.96ZM597.66-24.56L597.66-24.56Q600.29-24.56 602.86-23.85 605.42-23.14 607.47-21.7 609.52-20.26 610.79-18.07 612.06-15.87 612.06-12.94L612.06-12.94Q612.06-10.01 610.45-7.71 608.84-5.42 606.37-3.83 603.91-2.25 601-1.42 598.09-0.59 595.51-0.59L595.51-0.59Q593.46-0.59 591.45-1.03 589.45-1.46 587.65-2.54L587.65-2.54Q587.6-1.03 587.6 0.46 587.6 1.95 587.6 3.47L587.6 3.47Q587.6 4 587.6 5.25 587.6 6.49 587.65 7.86 587.69 9.23 587.79 10.38 587.89 11.52 588.08 11.82L588.08 11.82 579.49 11.82Q579.74 11.43 579.95 9.52 580.17 7.62 580.37 4.91 580.57 2.2 580.71-0.95 580.86-4.1 580.98-6.98 581.1-9.86 581.15-12.18 581.2-14.5 581.2-15.53L581.2-15.53Q581.2-16.06 581.2-17.43 581.2-18.8 581.1-20.29 581-21.78 580.81-23 580.61-24.22 580.27-24.46L580.27-24.46 589.55-24.37Q589.21-24.02 589.09-23.36 588.96-22.71 588.87-22.22L588.87-22.22Q590.87-23.34 593.09-23.95 595.31-24.56 597.66-24.56ZM595.46-5.47L595.46-5.47Q597.17-5.47 598.85-5.96 600.54-6.45 601.9-7.42 603.27-8.4 604.1-9.84 604.93-11.28 604.93-13.18L604.93-13.18Q604.93-14.94 604.17-16.24 603.42-17.53 602.2-18.38 600.98-19.24 599.44-19.63 597.9-20.02 596.34-20.02L596.34-20.02Q593.8-20.02 591.58-18.95 589.35-17.87 588.23-15.53L588.23-15.53Q588.13-14.11 588.06-12.74 587.99-11.38 587.89-9.96L587.89-9.96Q588.28-8.69 589.06-7.81 589.84-6.93 590.84-6.42 591.84-5.91 593.04-5.69 594.24-5.47 595.46-5.47ZM642.72 0.59L633.69 0.59Q634.52 0.34 634.71-0.51 634.91-1.37 634.96-2.05L634.96-2.05Q632.76-1.37 630.51-1.03 628.27-0.68 626.02-0.68L626.02-0.68Q624.56-0.68 622.53-0.93 620.5-1.17 618.67-1.86 616.84-2.54 615.55-3.76 614.25-4.98 614.25-6.98L614.25-6.98Q614.25-8.69 615.5-9.91 616.74-11.13 618.7-11.94 620.65-12.74 623.09-13.18 625.53-13.62 627.88-13.87 630.22-14.11 632.27-14.16 634.32-14.21 635.49-14.26L635.49-14.26Q635.49-14.94 635.52-15.58 635.54-16.21 635.54-16.89L635.54-16.89Q635.54-18.12 635.1-19.02 634.66-19.92 633.91-20.51 633.15-21.09 632.13-21.36 631.1-21.63 629.98-21.63L629.98-21.63Q628.9-21.63 627.66-21.34 626.41-21.04 625.29-20.46 624.17-19.87 623.34-18.97 622.51-18.07 622.31-16.89L622.31-16.89 616.16-17.72Q617.04-19.97 618.6-21.53 620.16-23.1 622.14-24.07 624.12-25.05 626.36-25.51 628.61-25.98 630.86-25.98L630.86-25.98Q633-25.98 635.03-25.44 637.06-24.9 638.64-23.8 640.23-22.71 641.18-21 642.13-19.29 642.13-16.94L642.13-16.94Q642.13-14.45 642.06-11.99 641.99-9.52 641.99-7.03L641.99-7.03Q641.99-6.59 641.99-5.44 641.99-4.3 642.06-3.05 642.13-1.81 642.28-0.76 642.43 0.29 642.72 0.59L642.72 0.59ZM620.89-6.98L620.89-6.98Q620.89-6.25 621.68-5.86 622.46-5.47 623.51-5.25 624.56-5.03 625.58-4.98 626.61-4.93 627.05-4.93L627.05-4.93Q629.1-4.93 631.2-5.22 633.3-5.52 635.25-6.15L635.25-6.15Q635.3-7.03 635.32-7.91 635.35-8.79 635.35-9.62L635.35-9.62 634.08-9.67Q633.64-9.67 632.49-9.64 631.34-9.62 629.88-9.55 628.41-9.47 626.83-9.3 625.24-9.13 623.92-8.84 622.6-8.54 621.75-8.08 620.89-7.62 620.89-6.98ZM658.44-17.63Q658.34-15.14 658.25-12.62 658.15-10.11 658.15-7.62L658.15-7.62Q658.15-6.79 658.49-6.2 658.83-5.62 659.39-5.25 659.95-4.88 660.66-4.74 661.37-4.59 662.1-4.59L662.1-4.59Q663.03-4.59 663.93-4.74 664.84-4.88 665.72-5.13L665.72-5.13 664.94 0.1Q662.1 0.1 659.61-0.07 657.12-0.24 655.27-1.12 653.41-2 652.34-3.93 651.26-5.86 651.26-9.38L651.26-9.38Q651.26-11.43 651.39-13.5 651.51-15.58 651.7-17.63L651.7-17.63 644.48-17.58 644.82-22.36Q646.58-22.22 648.38-22.19 650.19-22.17 652-22.17L652-22.17Q652.09-23.58 652.14-24.93 652.19-26.27 652.19-27.69L652.19-27.69Q652.19-27.98 652.19-28.86 652.19-29.74 652.09-30.69 652-31.64 651.8-32.42 651.61-33.2 651.26-33.35L651.26-33.35 660.25-33.2Q660.05-33.2 659.95-32.91 659.86-32.62 659.76-32.47L659.76-32.47Q659.47-31.54 659.3-30.22 659.12-28.91 659-27.47 658.88-26.03 658.81-24.68 658.73-23.34 658.69-22.31L658.69-22.31Q660.35-22.41 662.05-22.49 663.76-22.56 665.42-22.95L665.42-22.95 665.42-17.68 658.44-17.63ZM681.44-17.63Q681.34-15.14 681.24-12.62 681.14-10.11 681.14-7.62L681.14-7.62Q681.14-6.79 681.49-6.2 681.83-5.62 682.39-5.25 682.95-4.88 683.66-4.74 684.37-4.59 685.1-4.59L685.1-4.59Q686.03-4.59 686.93-4.74 687.83-4.88 688.71-5.13L688.71-5.13 687.93 0.1Q685.1 0.1 682.61-0.07 680.12-0.24 678.26-1.12 676.41-2 675.33-3.93 674.26-5.86 674.26-9.38L674.26-9.38Q674.26-11.43 674.38-13.5 674.5-15.58 674.7-17.63L674.7-17.63 667.47-17.58 667.81-22.36Q669.57-22.22 671.38-22.19 673.18-22.17 674.99-22.17L674.99-22.17Q675.09-23.58 675.14-24.93 675.19-26.27 675.19-27.69L675.19-27.69Q675.19-27.98 675.19-28.86 675.19-29.74 675.09-30.69 674.99-31.64 674.8-32.42 674.6-33.2 674.26-33.35L674.26-33.35 683.24-33.2Q683.05-33.2 682.95-32.91 682.85-32.62 682.75-32.47L682.75-32.47Q682.46-31.54 682.29-30.22 682.12-28.91 682-27.47 681.88-26.03 681.8-24.68 681.73-23.34 681.68-22.31L681.68-22.31Q683.34-22.41 685.05-22.49 686.76-22.56 688.42-22.95L688.42-22.95 688.42-17.68 681.44-17.63ZM707.02 0.73L707.02 0.73Q704.63 0.73 701.94 0.1 699.26-0.54 696.99-1.88 694.72-3.22 693.23-5.27 691.74-7.32 691.74-10.16L691.74-10.16Q691.74-13.62 693.1-16.36 694.47-19.09 696.77-20.97 699.06-22.85 702.09-23.85 705.12-24.85 708.44-24.85L708.44-24.85Q711.07-24.85 713.12-24 715.17-23.14 716.54-21.61 717.91-20.07 718.62-17.97 719.32-15.87 719.32-13.33L719.32-13.33Q719.32-10.89 718.59-8.64L718.59-8.64 698.23-8.64Q698.72-7.18 699.77-6.25 700.82-5.32 702.16-4.81 703.5-4.3 704.99-4.1 706.48-3.91 707.8-3.91L707.8-3.91Q708.63-3.91 710.02-4.03 711.41-4.15 712.88-4.42 714.34-4.69 715.64-5.08 716.93-5.47 717.57-6.05L717.57-6.05 719.96-1.86Q716.74-0.63 713.61 0.05 710.49 0.73 707.02 0.73ZM707.02-20.26L707.02-20.26Q705.56-20.26 704.11-19.68 702.67-19.09 701.5-18.14 700.33-17.19 699.45-15.89 698.57-14.6 698.18-13.23L698.18-13.23 712.15-13.23Q712.29-14.7 712.17-15.99 712.05-17.29 711.51-18.24 710.98-19.19 709.9-19.73 708.83-20.26 707.02-20.26ZM731.19-18.55L731.19-18.55Q732.36-19.53 733.9-20.41 735.44-21.29 737.12-21.95 738.8-22.61 740.54-23 742.27-23.39 743.79-23.39L743.79-23.39 743.79-19.19Q742.22-19.19 740.32-18.51 738.41-17.82 736.58-16.75 734.75-15.67 733.29-14.31 731.82-12.94 731.14-11.52L731.14-11.52Q731.14-11.18 731.16-10.25 731.19-9.33 731.21-8.11 731.24-6.88 731.29-5.54 731.33-4.2 731.43-3.03 731.53-1.86 731.63-1.03 731.72-0.2 731.87 0L731.87 0 723.96 0Q724.16-0.1 724.3-1.05 724.45-2 724.52-3.37 724.6-4.74 724.67-6.32 724.74-7.91 724.77-9.38 724.79-10.84 724.79-11.91 724.79-12.99 724.79-13.33L724.79-13.33Q724.79-13.77 724.79-15.19 724.79-16.6 724.74-18.16 724.69-19.73 724.6-21.07 724.5-22.41 724.3-22.71L724.3-22.71 731.53-22.71Q731.43-22.41 731.38-21.85 731.33-21.29 731.29-20.65 731.24-20.02 731.21-19.43 731.19-18.85 731.19-18.55ZM774.54-15.04L774.54-15.04Q774.54-11.67 774.23-8.35 773.91-5.03 773.91-1.66L773.91-1.66Q773.91-0.54 774.06 0.54L774.06 0.54 765.51 0.54Q766-0.24 766.24-2.08 766.49-3.91 766.61-5.98 766.73-8.06 766.76-9.99 766.78-11.91 766.78-12.94L766.78-12.94Q766.78-15.92 765.32-17.6 763.85-19.29 760.77-19.29L760.77-19.29Q759.75-19.29 758.8-18.92 757.85-18.55 756.99-17.97 756.14-17.38 755.38-16.65 754.62-15.92 754.04-15.19L754.04-15.19Q753.89-10.94 753.89-6.69L753.89-6.69Q753.89-6.35 753.89-5.35 753.89-4.35 753.94-3.22 753.99-2.1 754.09-1.15 754.18-0.2 754.43 0L754.43 0 745.78 0Q745.98-0.29 746.18-1.44 746.37-2.59 746.52-4.17 746.66-5.76 746.76-7.57 746.86-9.38 746.93-11.04 747.01-12.7 747.03-13.96 747.05-15.23 747.05-15.72L747.05-15.72Q747.05-16.11 747.03-17.36 747.01-18.6 746.91-19.95 746.81-21.29 746.59-22.41 746.37-23.54 745.93-23.68L745.93-23.68 754.48-23.63 754.33-21.29Q756.14-22.61 758.36-23.46 760.58-24.32 762.87-24.32L762.87-24.32Q765.12-24.32 767.24-23.85 769.37-23.39 770.98-22.29 772.59-21.19 773.57-19.43 774.54-17.68 774.54-15.04Z" opacity="1" transform="matrix(1,0,0,1,0,0)" fill="#f9cc0b" class="undefined-text-1" data-fill-palette-color="secondary" id="text-1"></path></svg></g></svg></g></svg></g></svg></g></svg></g></svg></g></svg></g><g><path d="M151.089 157.751A122.216 122.216 0 1 0 151.089 89.449L153.893 89.449A119.411 119.411 0 1 1 153.893 157.751L151.089 157.751" fill="#f9cc0b" stroke="transparent" data-fill-palette-color="tertiary"></path></g></svg></g></svg><rect width="395.52" height="247.2" fill="none" stroke="none" visibility="hidden"></rect></g></svg></g></svg>